<!-- Generator: Adobe Illustrator 19.0.0, SVG Export Plug-In  -->
<svg version="1.1"
	 xmlns="http://www.w3.org/2000/svg" xmlns:xlink="http://www.w3.org/1999/xlink" xmlns:a="http://ns.adobe.com/AdobeSVGViewerExtensions/3.0/"
	 x="0px" y="0px" width="40px" height="44.9px" viewBox="0 0 40 44.9" style="enable-background:new 0 0 40 44.9;"
	 xml:space="preserve">
<style type="text/css">
	.st0{fill:#7A7A7A;}
</style>
<defs>
</defs>
<g>
	<path class="st0" d="M30.6,13.3c-0.2-0.4-0.6-0.6-0.8-0.8c0-0.5,0-1.1-0.1-1.9c0.1-0.9,0.3-6-2.8-8.3C24.9,0.7,22.7,0,20.6,0
		c-1.7,0-3.4,0.5-4.6,1.4c-1.1,0.8-1.8,1.7-2.1,2.3c-1,0-3,0.4-3.9,3c-0.9,2.5-0.2,4,0.3,4.7c0,0.4,0,0.8,0,1
		c-0.3,0.2-0.6,0.4-0.8,0.8c-0.6,0.9-0.7,2-0.3,3.5c0.7,2.7,2.3,3.3,3.2,3.4c0.5,1.1,1.7,3.3,2.9,4.4c0.5,0.4,1.1,0.8,1.8,1.1
		c0.9,0.4,1.9,0.6,2.9,0.6c1,0,2-0.2,3-0.6c0.7-0.3,1.3-0.7,1.8-1.1c1.2-1.1,2.4-3.3,2.9-4.4c0.9-0.1,2.5-0.7,3.2-3.4
		C31.2,15.3,31.1,14.1,30.6,13.3L30.6,13.3z M28.9,16.2c-0.4,1.6-1.2,1.9-1.6,1.9c0,0-0.1,0-0.1,0c-0.5-0.1-0.9,0.1-1.1,0.6
		c-0.4,0.9-1.7,3.4-2.7,4.3c-0.3,0.3-0.7,0.5-1.2,0.7c-1.4,0.6-3,0.6-4.4,0c-0.5-0.2-0.9-0.4-1.2-0.7c-1-1-2.3-3.4-2.7-4.3
		C13.7,18.3,13.4,18,13,18c-0.1,0-0.2,0-0.2,0c0,0,0,0-0.1,0c-0.4,0-1.2-0.2-1.6-1.9c-0.2-0.8-0.2-1.4,0-1.8
		c0.1-0.2,0.3-0.3,0.4-0.3c0.6-0.1,0.9-0.5,0.8-1.1c0,0,0-0.5,0-1.2c0.7-0.3,1.8-0.9,2.8-1.9c0.5-0.5,0.8-1.2,1.1-1.8
		c0.7,0.6,1.7,1.2,3,1.8c2.2,1,6.6,1.4,8.5,1.6c0.1,0.9,0,1.5,0,1.5c0,0.6,0.3,1,0.8,1.1c0.1,0,0.2,0.1,0.4,0.3
		C29.1,14.8,29.1,15.4,28.9,16.2L28.9,16.2z M35.5,29.9l-9-3.6c-0.3-0.1-0.5-0.1-0.8,0c-0.3,0.1-0.5,0.3-0.5,0.6l-2.3,6.2l-0.4-1.3
		l0.7-1.7c0.1-0.3,0.1-0.7-0.1-1c-0.2-0.3-0.5-0.5-0.9-0.5h-4.4c-0.3,0-0.7,0.2-0.9,0.5c-0.2,0.3-0.2,0.6-0.1,1l0.7,1.7l-0.4,1.3
		l-2.3-6.2c-0.1-0.3-0.3-0.5-0.5-0.6c-0.3-0.1-0.5-0.1-0.8,0l-9,3.6C1.8,31,0,33.6,0,36.6v7.2c0,0.6,0.5,1,1,1H39c0.6,0,1-0.5,1-1
		v-7.2C40,33.6,38.2,31,35.5,29.9L35.5,29.9z M35.1,39.6"/>
</g>
</svg>
